<?xml version="1.0" encoding="utf-8" ?><svg xmlns="http://www.w3.org/2000/svg" xmlns:xlink="http://www.w3.org/1999/xlink" width="500" height="500" viewBox="0 0 500 500"><path fill="#077184" d="M351.72 81.2922L352.016 81.1183C355.381 79.0911 359.581 74.4416 362.385 72.3495C365.764 69.8283 386.636 50.8848 389.368 50.7092L389.638 51.0673C389.443 52.1894 388.75 53.2979 388.143 54.2596C381.288 65.1179 374.059 75.7241 366.954 86.4158C366.153 87.6208 365.263 88.9875 364.749 90.3355C369.151 93.3047 373.41 96.481 377.512 99.8538C378.299 100.6 382.936 104.922 383.278 105.537C388.877 110.348 392.933 114.973 397.809 120.334C411.446 135.327 421.715 152.248 429.988 170.697C432.554 176.418 435.118 182.338 437.06 188.36C442.207 204.767 445.399 221.724 446.57 238.879C447.384 249.462 447.068 256.365 446.179 266.751C442.78 307.418 426.658 345.981 400.101 376.966C356.527 427.531 293.297 452.924 226.855 445.396C204.979 442.918 182.345 435.802 162.666 426.092C160.4 424.974 150.223 419.662 148.961 418.378C146.909 417.707 137.463 411.51 135.08 410.021C132.445 411.538 128.727 415.096 126.411 417.255C121.606 421.732 116.947 426.204 111.987 430.525C108.192 433.831 106.747 435.673 102.301 438.202C103.374 435.98 105.706 431.069 107.321 429.447C112.718 419.966 119.739 411.087 124.945 401.476C123.871 400.126 118.562 396.387 116.597 394.314C109.261 388.55 98.6913 375.814 92.967 368.323C87.1043 360.75 81.7855 352.772 77.0505 344.448C74.1344 339.286 70.9358 331.793 68.5836 326.368C57.9691 301.885 52.8948 275.661 53.0959 248.993C53.1397 243.178 53.6523 238.71 54.1105 232.972C57.0039 196.699 70.0687 161.978 91.8048 132.795C98.2069 124.265 104.94 116.962 112.435 109.428C115.947 105.772 119.54 102.763 123.393 99.4934C143.763 82.1347 167.538 69.2282 193.191 61.6029C224.315 52.14 261.069 51.5857 292.9 57.8572C302.199 59.6893 320.475 65.3331 328.67 69.7008C333.65 71.7705 337.84 73.623 342.615 76.1141C344.924 77.3186 349.682 80.4796 351.72 81.2922ZM226.869 355.221C229.294 355.922 231.701 356.192 234.169 356.612C294.733 366.931 353.097 318.895 357.48 258.211C358.111 249.484 357.232 240.975 356.168 232.378C355.727 229.435 354.009 220.806 352.836 218.273C350.597 219.309 343.909 225.461 341.565 227.451L315.882 249.364C303.425 260.069 290.514 270.46 278.203 281.105C259.397 297.524 240.812 314.192 222.451 331.106C217.986 335.273 213.278 339.08 208.933 343.38C207.553 344.746 205.24 346.73 204.148 348.234C206.694 348.678 206.693 348.903 208.949 349.643C214.557 351.409 221.378 353.737 226.869 355.221ZM344.928 200.008C341.204 192.058 338.222 189.457 333.842 182.502C333.742 182.455 330.256 178.18 329.667 177.595C325.506 173.462 321.559 168.443 316.79 165.026C314.977 167.46 313.195 171.141 311.391 173.851C307.589 179.562 303.796 185.322 300.007 191.038C298.567 193.212 295.668 198.334 294.167 200.052C296.497 200.562 308.538 200.086 311.624 200.123C321.545 200.243 331.548 200.766 341.463 200.505C342.774 200.47 343.665 200.398 344.928 200.008ZM143.533 266.383C146.233 287.098 155.491 303.46 168.138 319.595C169.267 320.77 171.833 323.706 172.976 324.53C174.949 322.907 182.212 310.195 184.074 307.342C193.045 293.598 201.269 279.323 210.262 265.592C208.473 265.456 204.912 265.703 202.917 265.748C198.21 265.849 193.502 265.899 188.794 265.898C182.932 265.932 177.07 265.915 171.208 265.846C163.803 265.702 156.549 265.298 149.149 265.876C147.512 266.003 145.024 265.987 143.533 266.383ZM274.846 145.391C267.567 142.307 257.254 142.205 249.24 141.697C224.599 142.705 207.046 147.881 187.062 162.568C162.619 180.531 147.528 205.894 143.255 235.963C142.549 240.93 143.032 251.87 141.874 255.729C149.471 249.422 157.521 243.375 165.176 237.168C201.939 206.822 238.496 176.229 274.846 145.391Z"/><path fill="#077184" d="M112.435 109.428C115.947 105.772 119.54 102.763 123.393 99.4934C143.763 82.1347 167.538 69.2282 193.191 61.6029C224.315 52.14 261.069 51.5857 292.9 57.8572C302.199 59.6893 320.475 65.3331 328.67 69.7008C333.65 71.7705 337.84 73.623 342.615 76.1141C344.924 77.3186 349.682 80.4796 351.72 81.2922C350.736 82.3474 350.269 82.722 349.157 83.601C344.708 87.1678 340.339 90.8332 336.053 94.5942C333.966 96.4231 329.459 100.586 327.355 101.993C326.696 102.52 324.526 104.323 323.92 104.6C320.405 107.333 316.969 110.166 313.614 113.093C310.665 115.711 307.051 119.224 304.017 121.615C301.306 123.847 297.83 126.133 295.375 128.301C290.732 132.401 286.237 136.615 281.353 140.49C279.604 141.877 276.802 144.513 274.846 145.391C267.567 142.307 257.254 142.205 249.24 141.697C224.599 142.705 207.046 147.881 187.062 162.568C162.619 180.531 147.528 205.894 143.255 235.963C142.549 240.93 143.032 251.87 141.874 255.729C140.014 257.81 130.522 264.866 130.288 265.79C132.602 266.634 140.603 266.184 143.533 266.383C146.233 287.098 155.491 303.46 168.138 319.595C169.267 320.77 171.833 323.706 172.976 324.53C168.68 332.415 163.797 340.133 159.116 347.798C158.423 348.933 157.672 350.184 156.924 351.27C154.43 355.475 151.225 360.039 148.555 364.382C146.426 367.77 144.478 372.057 142.217 375.039C141.805 375.631 141.402 376.227 140.967 376.802C137.417 382.694 133.761 388.521 130.001 394.281C129.029 395.745 126.028 400.266 124.945 401.476C123.871 400.126 118.562 396.387 116.597 394.314C109.261 388.55 98.6913 375.814 92.967 368.323C87.1043 360.75 81.7855 352.772 77.0505 344.448C74.1344 339.286 70.9358 331.793 68.5836 326.368C57.9691 301.885 52.8948 275.661 53.0959 248.993C53.1397 243.178 53.6523 238.71 54.1105 232.972C57.0039 196.699 70.0687 161.978 91.8048 132.795C98.2069 124.265 104.94 116.962 112.435 109.428Z"/><path fill="#0D9FEC" d="M112.435 109.428C115.947 105.772 119.54 102.763 123.393 99.4934C143.763 82.1347 167.538 69.2282 193.191 61.6029C224.315 52.14 261.069 51.5857 292.9 57.8572C302.199 59.6893 320.475 65.3331 328.67 69.7008C333.65 71.7705 337.84 73.623 342.615 76.1141C344.924 77.3186 349.682 80.4796 351.72 81.2922C350.736 82.3474 350.269 82.722 349.157 83.601C344.708 87.1678 340.339 90.8332 336.053 94.5942C333.966 96.4231 329.459 100.586 327.355 101.993C326.696 102.52 324.526 104.323 323.92 104.6C320.405 107.333 316.969 110.166 313.614 113.093C310.665 115.711 307.051 119.224 304.017 121.615C301.362 122.547 295.033 119.347 291.557 118.431L291.238 118.348C284.877 115.905 279.202 114.999 272.617 113.854C243.267 108.749 215.65 113.627 188.743 126.065C183.253 128.603 173.326 135.227 168.263 138.842C165.588 140.752 160.489 146.198 157.424 147.804L157.394 147.543C158.057 146.222 161.38 144.333 162.553 143.228C173.387 133.022 187.12 125.743 200.953 120.484C202.766 119.795 208.73 118.29 209.82 117.151L209.455 117.067L209.314 116.602C209.749 115.751 210.62 115.502 211.632 114.509C210.884 113.868 209.633 113.038 210.001 111.996C210.927 111.669 211.105 111.618 211.921 111.099C211.144 110.256 210.177 109.082 209.244 108.486C207.3 109.005 206.459 109.257 204.956 107.777C204.353 107.183 203.108 106.604 202.593 105.94C200.148 102.791 197.622 99.5519 194.898 96.6748C193.839 96.4872 191.666 96.3354 190.678 96.7899C183.972 99.8734 175.315 103.003 168.975 106.531C160.076 111.832 151.557 117.271 143.834 124.207C142.645 125.275 136.633 130.289 135.791 130.706C124.288 141.733 113.245 155.145 105.295 168.954C103.798 171.555 101.8 176.147 100.433 179.068C96.4426 187.426 92.815 195.954 89.5609 204.626C88.3269 207.93 87.6066 214.007 86.2524 217.627C86.2604 211.419 92.2656 194.95 94.3613 188.711C95.0446 186.677 99.3687 178.821 99.3867 177.237C103.541 167.651 109.608 157.719 115.854 149.309C117.996 146.424 121.045 143.687 123.385 140.535L123.205 140.294C128.154 131.308 140.981 123.546 148.122 116.261C149.279 115.08 154.947 112.442 155.03 110.925C154.324 111.568 152.576 112.845 151.617 112.852C151.574 112.137 151.705 112.455 151.326 111.854C149.705 111.777 151.321 112.313 149.842 112.449C149.843 111.873 149.903 112.136 149.692 111.653C148.641 111.985 148.003 112.644 147.045 111.954L146.766 112.647L147.026 113.046C147.804 113.269 148.234 113.366 149.032 113.515C148.911 113.64 144.652 115.349 144.58 115.362C143.684 114.12 143.675 113.501 142.455 112.568C141.296 112.339 141.671 112.632 140.567 112.942C135.435 114.386 130.259 112.271 127.354 108.332C127.254 108.448 125.399 107.678 124.528 107.851C122.624 108.228 121.398 109.667 119.633 110.544C119.332 110.234 119.112 110.027 118.787 109.742C118.069 110.255 117.896 109.79 116.368 111.168C115.54 110.682 115.776 111.021 115.538 110.192C116.315 107.17 121.822 104.636 121.408 101.893C120.154 102.708 112.985 109.442 112.48 110.561L112.302 110.35L112.435 109.428Z"/><path fill="#14AEAB" d="M223.426 87.3646C231.58 86.042 240.605 85.1792 248.875 84.7646C253.506 84.5324 258.729 85.3386 263.358 85.7262C272.766 86.4902 282.197 88.0542 291.341 90.395C294.957 91.3206 299.922 93.3295 303.491 94.3554C306.772 95.2985 322.348 101.761 324.088 103.794C323.937 104.222 324.049 104.021 323.738 104.388L323.92 104.6C320.405 107.333 316.969 110.166 313.614 113.093C310.665 115.711 307.051 119.224 304.017 121.615C301.362 122.547 295.033 119.347 291.557 118.431L291.238 118.348C284.877 115.905 279.202 114.999 272.617 113.854C243.267 108.749 215.65 113.627 188.743 126.065C183.253 128.603 173.326 135.227 168.263 138.842C165.588 140.752 160.489 146.198 157.424 147.804L157.394 147.543C158.057 146.222 161.38 144.333 162.553 143.228C173.387 133.022 187.12 125.743 200.953 120.484C202.766 119.795 208.73 118.29 209.82 117.151L209.455 117.067L209.314 116.602C209.749 115.751 210.62 115.502 211.632 114.509C210.884 113.868 209.633 113.038 210.001 111.996C210.927 111.669 211.105 111.618 211.921 111.099C211.144 110.256 210.177 109.082 209.244 108.486C207.3 109.005 206.459 109.257 204.956 107.777C204.353 107.183 203.108 106.604 202.593 105.94C200.148 102.791 197.622 99.5519 194.898 96.6748C193.839 96.4872 191.666 96.3354 190.678 96.7899C183.972 99.8734 175.315 103.003 168.975 106.531C160.076 111.832 151.557 117.271 143.834 124.207C142.645 125.275 136.633 130.289 135.791 130.706C138.692 127.226 141.587 125.571 145.014 122.66C152.534 116.274 160.663 110.642 169.284 105.847C171.918 104.411 174.818 103.442 177.465 102.093C192.365 94.5038 207.176 90.655 223.426 87.3646Z"/><path fill="#35BDDA" d="M221.124 84.8492C221.984 84.9583 223.694 84.6693 223.919 84.7386C223.607 85.7023 223.121 86.2138 223.844 86.985L222.745 87.0556L222.864 87.2601L223.426 87.3646C207.176 90.655 192.365 94.5038 177.465 102.093C174.818 103.442 171.918 104.411 169.284 105.847C160.663 110.642 152.534 116.274 145.014 122.66C141.587 125.571 138.692 127.226 135.791 130.706C124.288 141.733 113.245 155.145 105.295 168.954C103.798 171.555 101.8 176.147 100.433 179.068C96.4426 187.426 92.815 195.954 89.5609 204.626C88.3269 207.93 87.6066 214.007 86.2524 217.627C86.2604 211.419 92.2656 194.95 94.3613 188.711C95.0446 186.677 99.3687 178.821 99.3867 177.237C103.541 167.651 109.608 157.719 115.854 149.309C117.996 146.424 121.045 143.687 123.385 140.535C124.775 138.989 126.175 137.124 127.478 135.484C131.952 129.852 137.962 125.964 143.252 121.225C148.014 116.96 152.88 113.399 158.226 109.891C173.975 99.772 191.209 92.1756 209.303 87.3766C212.466 86.5412 217.893 85.1769 221.124 84.8492Z"/><defs><linearGradient id="gradient_0" gradientUnits="userSpaceOnUse" x1="274.33212" y1="99.932129" x2="275.14456" y2="83.822487"><stop offset="0" stop-color="#5DC4B2"/><stop offset="1" stop-color="#33C8D6"/></linearGradient></defs><path fill="url(#gradient_0)" d="M221.124 84.8492C230.639 82.9206 238.418 82.8092 248.045 82.9949C254.43 83.1181 262.344 82.6851 268.54 83.2355C284.999 84.6973 303.845 90.6374 318.796 97.63C320.965 99.0653 325.923 100.777 327.355 101.993C326.696 102.52 324.526 104.323 323.92 104.6L323.738 104.388C324.049 104.021 323.937 104.222 324.088 103.794C322.348 101.761 306.772 95.2985 303.491 94.3554C299.922 93.3295 294.957 91.3206 291.341 90.395C282.197 88.0542 272.766 86.4902 263.358 85.7262C258.729 85.3386 253.506 84.5324 248.875 84.7646C240.605 85.1792 231.58 86.042 223.426 87.3646L222.864 87.2601L222.745 87.0556L223.844 86.985C223.121 86.2138 223.607 85.7023 223.919 84.7386C223.694 84.6693 221.984 84.9583 221.124 84.8492Z"/><path fill="#14AEAB" d="M328.67 69.7008C333.65 71.7705 337.84 73.623 342.615 76.1141C344.924 77.3186 349.682 80.4796 351.72 81.2922C350.736 82.3474 350.269 82.722 349.157 83.601C344.708 87.1678 340.339 90.8332 336.053 94.5942C333.966 96.4231 329.459 100.586 327.355 101.993C325.923 100.777 320.965 99.0653 318.796 97.63C320.648 97.203 324.845 101.467 327.342 100.4L327.602 100.064C329.626 97.4791 333.238 97.1948 334.53 95.1758C336.788 91.6467 335.852 89.245 341.42 88.3352C342.705 88.1253 344.591 85.5803 345.395 84.5813C345.547 83.6809 345.679 83.0734 345.916 82.1917C343.877 81.0619 338.451 78.5069 337.196 77.0644C336.438 76.5941 335.458 76.0892 334.936 75.402C336.137 76.0006 337.344 76.5896 338.555 77.1692C338.396 76.0575 338.252 75.6623 338.59 74.5991C336.249 73.1898 329.881 71.4062 328.67 69.7008Z"/><path fill="#0D9FEC" d="M157.424 147.804C160.489 146.198 165.588 140.752 168.263 138.842C173.326 135.227 183.253 128.603 188.743 126.065C215.65 113.627 243.267 108.749 272.617 113.854C279.202 114.999 284.877 115.905 291.238 118.348L291.557 118.431C295.033 119.347 301.362 122.547 304.017 121.615C301.306 123.847 297.83 126.133 295.375 128.301C290.732 132.401 286.237 136.615 281.353 140.49C279.604 141.877 276.802 144.513 274.846 145.391C267.567 142.307 257.254 142.205 249.24 141.697C224.599 142.705 207.046 147.881 187.062 162.568C162.619 180.531 147.528 205.894 143.255 235.963C142.549 240.93 143.032 251.87 141.874 255.729C140.014 257.81 130.522 264.866 130.288 265.79C132.602 266.634 140.603 266.184 143.533 266.383C146.233 287.098 155.491 303.46 168.138 319.595C169.267 320.77 171.833 323.706 172.976 324.53C168.68 332.415 163.797 340.133 159.116 347.798C158.423 348.933 157.672 350.184 156.924 351.27C153.189 349.269 152.036 347.749 149.565 344.285L147.9 342.516C147.699 341.692 138.145 330.292 136.717 328.057C133.209 322.562 129.59 317.571 126.718 311.568C109.376 275.323 107.042 234.227 123.19 197.082C127.105 188.061 134.325 171.998 141.635 165.455C144.027 162.532 146.22 159.365 148.654 156.481C151.321 153.323 154.344 150.547 157.424 147.804Z"/><path fill="#35BDDA" d="M157.424 147.804C160.489 146.198 165.588 140.752 168.263 138.842C173.326 135.227 183.253 128.603 188.743 126.065C215.65 113.627 243.267 108.749 272.617 113.854C279.202 114.999 284.877 115.905 291.238 118.348C293.069 120.397 299.388 120.426 300.55 122.745C300 126.099 295.769 123.341 294.302 122.476C292.408 121.359 290.027 120.938 287.913 120.33C279.636 117.867 271.122 116.292 262.512 115.629C228.79 112.679 193.429 121.751 167.095 143.19C165.1 144.815 162.602 146.282 160.744 147.921C155.609 152.449 150.584 157.397 146.184 162.644C145.811 163.093 143.898 165.577 143.61 165.561C144.536 163.231 152.705 154.992 154.881 152.713C155.656 151.902 157.402 150.775 157.956 149.93C156.489 150.027 155.301 151.92 154.82 151.951C150.665 152.221 143.917 164.679 141.902 165.591L141.635 165.455C144.027 162.532 146.22 159.365 148.654 156.481C151.321 153.323 154.344 150.547 157.424 147.804Z"/><defs><linearGradient id="gradient_1" gradientUnits="userSpaceOnUse" x1="289.25888" y1="137.3269" x2="280.26605" y2="130.8705"><stop offset="0" stop-color="#39C1C3"/><stop offset="1" stop-color="#27BEDB"/></linearGradient></defs><path fill="url(#gradient_1)" d="M262.512 115.629C271.122 116.292 279.636 117.867 287.913 120.33C290.027 120.938 292.408 121.359 294.302 122.476C295.769 123.341 300 126.099 300.55 122.745C299.388 120.426 293.069 120.397 291.238 118.348L291.557 118.431C295.033 119.347 301.362 122.547 304.017 121.615C301.306 123.847 297.83 126.133 295.375 128.301C290.732 132.401 286.237 136.615 281.353 140.49C279.604 141.877 276.802 144.513 274.846 145.391C267.567 142.307 257.254 142.205 249.24 141.697L249.389 141.24C250.298 141.428 253.405 141.393 254.652 141.523C260.613 142.144 267.536 142.09 273.112 144.23C273.887 134.774 285.569 130.347 290.798 123.521C291.215 122.976 291.17 122.66 291.091 122.007C287.126 119.663 267.845 116.204 262.987 116.032L262.743 116.025L262.512 115.629Z"/><path fill="#338EA6" d="M168.138 319.595C169.267 320.77 171.833 323.706 172.976 324.53C168.68 332.415 163.797 340.133 159.116 347.798C158.423 348.933 157.672 350.184 156.924 351.27C153.189 349.269 152.036 347.749 149.565 344.285C150.753 345.065 153.325 345.293 153.735 346.557L152.131 346.487L152.071 346.726C152.743 347.122 154.331 347.048 155.197 347.072C154.078 345.888 153.246 344.926 151.861 344.05L151.884 343.802C152.663 344.078 155.124 345.84 156.125 346.455C156.105 344.924 156.154 341.957 156.932 340.622L157.166 340.687C157.141 342.28 156.27 344.509 157.069 345.69L157.549 345.659C157.93 345.257 158.282 344.861 158.601 344.406C158.337 345.306 158.06 345.644 158.276 346.394C160.384 344.563 168.189 329.556 169.863 326.192C169.591 324.769 167.457 323.808 167.905 321.851C168.427 322.269 168.242 322.184 168.845 322.426C168.861 321.471 168.207 320.671 168.138 319.595Z"/><path fill="#0A7DD7" d="M112.435 109.428L112.302 110.35L112.48 110.561C112.985 109.442 120.154 102.708 121.408 101.893C121.822 104.636 116.315 107.17 115.538 110.192C115.776 111.021 115.54 110.682 116.368 111.168C117.896 109.79 118.069 110.255 118.787 109.742C119.112 110.027 119.332 110.234 119.633 110.544C121.398 109.667 122.624 108.228 124.528 107.851C125.399 107.678 127.254 108.448 127.354 108.332C130.259 112.271 135.435 114.386 140.567 112.942C141.671 112.632 141.296 112.339 142.455 112.568C143.675 113.501 143.684 114.12 144.58 115.362C144.652 115.349 148.911 113.64 149.032 113.515C148.234 113.366 147.804 113.269 147.026 113.046L146.766 112.647L147.045 111.954C148.003 112.644 148.641 111.985 149.692 111.653C149.903 112.136 149.843 111.873 149.842 112.449C151.321 112.313 149.705 111.777 151.326 111.854C151.705 112.455 151.574 112.137 151.617 112.852C152.576 112.845 154.324 111.568 155.03 110.925C154.947 112.442 149.279 115.08 148.122 116.261C140.981 123.546 128.154 131.308 123.205 140.294L123.385 140.535C121.045 143.687 117.996 146.424 115.854 149.309C109.608 157.719 103.541 167.651 99.3867 177.237C99.3687 178.821 95.0446 186.677 94.3613 188.711C92.2656 194.95 86.2604 211.419 86.2524 217.627C86.2903 220.955 84.8646 226.593 84.5714 230.155C84.4089 232.129 83.6928 239.971 83.0374 241.306C82.4581 251.213 82.3147 265.757 83.6655 275.322C87.0623 299.372 96.7622 322.635 109.907 342.906C112.149 346.364 115.483 350.21 115.71 354.533C115.728 355.964 118.12 360.512 117.841 361.159C115.081 358.506 113.151 357.097 110.241 354.656L109.989 354.691C110.497 356.963 120.606 363.125 121.72 365.887C122.117 366.872 122.512 368.286 123.137 369.129C125.135 371.823 132.827 374.843 131.59 378.906C130.803 378.035 131.257 378.225 130.303 378.068C129.522 378.498 129.557 378.583 129.144 379.355L129.221 379.536C129.909 379.014 129.966 378.906 130.876 378.863L131.225 379.186C130.851 382.02 126.583 382.533 125.934 384.773C126.575 385.554 128.312 385.41 128.989 384.772L128.714 384.39C127.85 384.451 127.643 384.534 126.84 384.779C127.273 384.265 128.031 383.27 128.6 383.035C129.11 383.252 129.048 383.06 129.243 383.61C130.254 386.456 127.223 386.043 125.05 387.158C121.414 389.023 122.487 392.305 119.549 394.039L119.464 394.394C120.167 394.603 120.121 394.628 120.822 394.443C121.249 393.896 121.394 393.483 121.92 393.349C121.908 395.222 122.233 395.836 120.677 397.043L120.463 397.207C119.887 396.54 117.498 394.398 116.597 394.314C109.261 388.55 98.6913 375.814 92.967 368.323C87.1043 360.75 81.7855 352.772 77.0505 344.448C74.1344 339.286 70.9358 331.793 68.5836 326.368C57.9691 301.885 52.8948 275.661 53.0959 248.993C53.1397 243.178 53.6523 238.71 54.1105 232.972C57.0039 196.699 70.0687 161.978 91.8048 132.795C98.2069 124.265 104.94 116.962 112.435 109.428Z"/><path fill="#338EA6" d="M83.0374 241.306C83.1806 238.55 83.1951 235.548 83.424 232.843C85.0471 215.429 89.5575 198.407 96.7703 182.475C97.2027 181.54 98.8399 177.7 99.3867 177.237C99.3687 178.821 95.0446 186.677 94.3613 188.711C92.2656 194.95 86.2604 211.419 86.2524 217.627C86.2903 220.955 84.8646 226.593 84.5714 230.155C84.4089 232.129 83.6928 239.971 83.0374 241.306Z"/><path fill="#3C7D55" d="M147.9 342.516L149.565 344.285C152.036 347.749 153.189 349.269 156.924 351.27C154.43 355.475 151.225 360.039 148.555 364.382C146.426 367.77 144.478 372.057 142.217 375.039C141.805 375.631 141.402 376.227 140.967 376.802C137.417 382.694 133.761 388.521 130.001 394.281C129.029 395.745 126.028 400.266 124.945 401.476C123.871 400.126 118.562 396.387 116.597 394.314C117.498 394.398 119.887 396.54 120.463 397.207C121.706 397.997 122.397 398.471 123.737 399.161C124.037 400.031 124.052 400.378 124.86 400.728C126.087 399.304 126.74 398.104 127.653 396.492C129.313 393.559 133.429 390.669 132.445 387.105C132.667 386.436 132.665 386.482 133.148 385.957L133.409 386.375C133.944 385.279 135.453 381.829 136.392 381.277C136.966 381.331 136.94 381.335 137.53 381.303C138.263 380.131 139.348 378.468 139.954 377.284C140.376 376.46 138.654 375.779 139.587 373.82C140.463 373.247 140.281 373.448 141.596 373.543C142.198 373.163 146.416 365.135 148.416 363.908C149.123 361.29 149.549 358.225 151.602 356.26C152.199 355.689 157.188 352.758 155.68 351.415C154.103 350.011 148.165 344.942 147.9 342.516Z"/><path fill="#4D9C64" d="M140.967 376.802C139.99 375.71 139.705 375.514 140.17 374.084L140.68 373.866C141.509 374.064 141.661 374.384 142.217 375.039C141.805 375.631 141.402 376.227 140.967 376.802Z"/><path fill="#BEF115" d="M351.72 81.2922L352.016 81.1183C355.381 79.0911 359.581 74.4416 362.385 72.3495C365.764 69.8283 386.636 50.8848 389.368 50.7092L389.638 51.0673C389.443 52.1894 388.75 53.2979 388.143 54.2596C381.288 65.1179 374.059 75.7241 366.954 86.4158C366.153 87.6208 365.263 88.9875 364.749 90.3355C369.151 93.3047 373.41 96.481 377.512 99.8538C376.86 102.415 374.915 102.597 373.23 104.175C370.58 106.658 368.191 110.238 365.883 113.122C366.113 112.834 364.461 117.521 364.373 117.791C363.769 118.14 361.987 118.706 361.839 119.233C361.483 120.495 361.15 121.614 361.557 122.897L362.046 123.43L361.983 123.972C360.671 123.385 360.908 122.202 359.484 121.677L358.951 122.056L358.904 122.446C360.126 123.497 363.661 126.22 364.231 127.279C364.003 127.095 363.391 126.615 363.149 126.573C361.303 126.253 356.433 121.071 355.671 120.924L355.411 121.114C355.214 121.825 355.105 121.94 354.713 122.541L354.591 122.726C353.613 122.201 352.328 120.795 351.531 119.957C350.081 120.951 348.371 121.841 347.752 123.445C347.925 124.806 350.541 126.516 347.45 129.279C346.265 130.339 343.572 129.711 343.057 131.174C344.075 131.817 344.52 131.559 345.047 132.234C344.299 133.906 342.214 132.546 341.348 134.341C340.37 136.367 340.675 138.992 338.923 140.514C337.488 140.895 335.885 139.585 335.3 141.728C335.77 142.811 335.411 142.417 336.345 143.014L335.438 143.82L335.726 144.523C335.431 145.024 335.648 144.848 335.042 145.009L333.679 142.834C333.675 142.832 332.39 141.796 332.143 141.636C329.176 147.275 323.71 154.074 320.244 159.695C319.58 160.771 317.129 164.078 316.79 165.026C314.977 167.46 313.195 171.141 311.391 173.851C307.589 179.562 303.796 185.322 300.007 191.038C298.567 193.212 295.668 198.334 294.167 200.052C296.497 200.562 308.538 200.086 311.624 200.123C321.545 200.243 331.548 200.766 341.463 200.505C342.774 200.47 343.665 200.398 344.928 200.008C351.703 199.725 360.245 199.994 367.152 200.019C368.081 200.037 370.012 200.082 371.005 200.051C371.507 200.036 370.836 201.009 371.645 200.282C371.244 201.186 370.97 201.15 370.038 201.834C368.231 204.399 365.373 206.253 363.087 208.274C360.428 210.626 354.78 215.654 352.836 218.273C350.597 219.309 343.909 225.461 341.565 227.451L315.882 249.364C303.425 260.069 290.514 270.46 278.203 281.105C259.397 297.524 240.812 314.192 222.451 331.106C217.986 335.273 213.278 339.08 208.933 343.38C207.553 344.746 205.24 346.73 204.148 348.234C202.96 349.73 195.876 354.995 193.868 356.666C190.855 359.173 184.175 366.886 181.563 368.548C179.358 370.167 177.466 372.22 175.388 373.75C168.708 378.668 163.484 384.62 157.436 390.154C152.027 395.114 145.812 399.661 140.598 404.969C139.371 406.217 135.819 408.784 135.08 410.021C132.445 411.538 128.727 415.096 126.411 417.255C121.606 421.732 116.947 426.204 111.987 430.525C108.192 433.831 106.747 435.673 102.301 438.202C103.374 435.98 105.706 431.069 107.321 429.447C112.718 419.966 119.739 411.087 124.945 401.476C126.028 400.266 129.029 395.745 130.001 394.281C133.761 388.521 137.417 382.694 140.967 376.802C141.402 376.227 141.805 375.631 142.217 375.039C144.478 372.057 146.426 367.77 148.555 364.382C151.225 360.039 154.43 355.475 156.924 351.27C157.672 350.184 158.423 348.933 159.116 347.798C163.797 340.133 168.68 332.415 172.976 324.53C174.949 322.907 182.212 310.195 184.074 307.342C193.045 293.598 201.269 279.323 210.262 265.592C208.473 265.456 204.912 265.703 202.917 265.748C198.21 265.849 193.502 265.899 188.794 265.898C182.932 265.932 177.07 265.915 171.208 265.846C163.803 265.702 156.549 265.298 149.149 265.876C147.512 266.003 145.024 265.987 143.533 266.383C140.603 266.184 132.602 266.634 130.288 265.79C130.522 264.866 140.014 257.81 141.874 255.729C149.471 249.422 157.521 243.375 165.176 237.168C201.939 206.822 238.496 176.229 274.846 145.391C276.802 144.513 279.604 141.877 281.353 140.49C286.237 136.615 290.732 132.401 295.375 128.301C297.83 126.133 301.306 123.847 304.017 121.615C307.051 119.224 310.665 115.711 313.614 113.093C316.969 110.166 320.405 107.333 323.92 104.6C324.526 104.323 326.696 102.52 327.355 101.993C329.459 100.586 333.966 96.4231 336.053 94.5942C340.339 90.8332 344.708 87.1678 349.157 83.601C350.269 82.722 350.736 82.3474 351.72 81.2922Z"/><path fill="#74C309" d="M352.86 207.576C355.913 206.175 367.349 201.232 370.038 201.834C368.231 204.399 365.373 206.253 363.087 208.274C360.428 210.626 354.78 215.654 352.836 218.273C350.597 219.309 343.909 225.461 341.565 227.451L315.882 249.364C303.425 260.069 290.514 270.46 278.203 281.105C259.397 297.524 240.812 314.192 222.451 331.106C217.986 335.273 213.278 339.08 208.933 343.38C207.553 344.746 205.24 346.73 204.148 348.234C202.96 349.73 195.876 354.995 193.868 356.666C190.855 359.173 184.175 366.886 181.563 368.548C179.358 370.167 177.466 372.22 175.388 373.75C168.708 378.668 163.484 384.62 157.436 390.154C152.027 395.114 145.812 399.661 140.598 404.969C139.371 406.217 135.819 408.784 135.08 410.021C132.445 411.538 128.727 415.096 126.411 417.255C121.606 421.732 116.947 426.204 111.987 430.525C108.192 433.831 106.747 435.673 102.301 438.202C103.374 435.98 105.706 431.069 107.321 429.447L107.409 429.534C107.565 430.372 104.385 434.661 104.074 436.026C108.21 435.711 108.847 430.505 111.093 428.142C119.934 418.933 127.674 408.186 137.784 400.231C143.142 396.014 147.115 391.47 152.21 387.098C158.018 381.889 163.884 376.491 169.584 371.169C172.81 368.157 176.032 365.621 179.011 362.298C180.105 361.683 186.175 356.032 187.335 354.959L201.417 342.079L259.545 288.958C264.613 284.375 269.845 278.953 275.085 274.447C277.431 272.43 280.402 270.502 282.934 268.406L308.11 247.187C311.321 244.512 314.185 241.297 317.483 238.724C324.132 233.549 330.41 228.01 336.696 222.412C341.883 217.792 348.398 212.907 352.86 207.576Z"/><defs><linearGradient id="gradient_2" gradientUnits="userSpaceOnUse" x1="347.43915" y1="115.55016" x2="363.48865" y2="124.76999"><stop offset="0" stop-color="#69C966"/><stop offset="1" stop-color="#20B3B0"/></linearGradient></defs><path fill="url(#gradient_2)" d="M364.749 90.3355C369.151 93.3047 373.41 96.481 377.512 99.8538C376.86 102.415 374.915 102.597 373.23 104.175C370.58 106.658 368.191 110.238 365.883 113.122C366.113 112.834 364.461 117.521 364.373 117.791C363.769 118.14 361.987 118.706 361.839 119.233C361.483 120.495 361.15 121.614 361.557 122.897L362.046 123.43L361.983 123.972C360.671 123.385 360.908 122.202 359.484 121.677L358.951 122.056L358.904 122.446C360.126 123.497 363.661 126.22 364.231 127.279C364.003 127.095 363.391 126.615 363.149 126.573C361.303 126.253 356.433 121.071 355.671 120.924L355.411 121.114C355.214 121.825 355.105 121.94 354.713 122.541L354.591 122.726C353.613 122.201 352.328 120.795 351.531 119.957C350.081 120.951 348.371 121.841 347.752 123.445C347.925 124.806 350.541 126.516 347.45 129.279C346.265 130.339 343.572 129.711 343.057 131.174C344.075 131.817 344.52 131.559 345.047 132.234C344.299 133.906 342.214 132.546 341.348 134.341C340.37 136.367 340.675 138.992 338.923 140.514C337.488 140.895 335.885 139.585 335.3 141.728C335.77 142.811 335.411 142.417 336.345 143.014L335.438 143.82L335.726 144.523C335.431 145.024 335.648 144.848 335.042 145.009L333.679 142.834C333.675 142.832 332.39 141.796 332.143 141.636C332.932 139.221 339.522 130.084 341.064 127.63C344.85 121.599 348.651 116.32 352.223 110.092C355.981 103.134 360.62 97.7196 364.749 90.3355Z"/><path fill="#AAEA8F" d="M333.679 142.834C334.217 142.051 334.026 142.036 334.718 141.892C335.239 142.549 335.26 143.002 335.438 143.82L335.726 144.523C335.431 145.024 335.648 144.848 335.042 145.009L333.679 142.834Z"/><path fill="#74C309" d="M199.835 258.795C206.038 258.712 215.118 258.651 221.235 258.186C220.509 258.733 219.476 259.57 218.718 259.997C217.71 260.506 210.922 264.907 210.262 265.592C208.473 265.456 204.912 265.703 202.917 265.748C198.21 265.849 193.502 265.899 188.794 265.898C182.932 265.932 177.07 265.915 171.208 265.846C163.803 265.702 156.549 265.298 149.149 265.876C147.512 266.003 145.024 265.987 143.533 266.383C140.603 266.184 132.602 266.634 130.288 265.79C133.789 265.781 142.943 260.769 148.598 260.4C154.658 259.858 160.732 260.122 166.799 259.986C175.351 259.794 183.901 258.896 192.469 258.955C194.896 258.972 197.419 258.974 199.835 258.795Z"/><path fill="#74C309" d="M352.223 110.092C348.651 116.32 344.85 121.599 341.064 127.63C339.522 130.084 332.932 139.221 332.143 141.636C329.176 147.275 323.71 154.074 320.244 159.695C319.58 160.771 317.129 164.078 316.79 165.026C314.977 167.46 313.195 171.141 311.391 173.851C307.589 179.562 303.796 185.322 300.007 191.038C298.567 193.212 295.668 198.334 294.167 200.052L293.863 199.841C290.599 201.736 285.766 204.587 282.252 205.499C284.214 201.89 287.119 198.585 289.156 195.072C294.121 186.508 300.1 178.697 305.374 170.321C307.149 167.501 309.513 164.929 311.164 162.042C311.547 161.605 313.107 158.851 313.525 158.209C315.92 154.525 317.921 150.842 320.881 147.574C319.436 149.742 311.162 161.736 311.186 163.359C311.713 164.146 314.741 165.672 315.816 165.545C316.634 164.836 316.209 164.401 316.573 163.768C318.443 160.508 321.241 157.439 323.25 154.253L340.985 126.626C343.05 123.365 345.157 120.02 347.347 116.847C348.441 115.261 350.759 110.848 352.223 110.092Z"/><path fill="#DFFC73" d="M199.835 258.795C196.184 258.706 190.813 258.903 187.361 258.625C187.858 258.006 189.06 257.696 189.808 257.668C201.114 257.256 213.837 255.123 225.058 255.446L223.941 258.392C223.435 259.764 221.868 262.134 221.04 263.405C210.543 279.522 200.995 296.156 190.011 311.967C188.823 313.678 187.564 315.417 186.415 317.161C181.448 326.872 175.346 335.287 169.043 344.108C167.455 346.33 166.423 349.507 164.865 351.999C164.851 350.496 168.744 344.298 169.533 342.494C169.964 341.51 172.176 339.728 171.693 338.742C168.69 340.157 165.972 349.019 163.351 351.421C172.524 334.22 184.641 317.599 194.463 300.653C196.351 297.396 198.296 294.207 200.04 290.864C201.301 288.556 203.83 285.975 204.975 283.685C208.816 276.007 213.308 269.102 218.276 262.135C218.581 261.707 218.715 260.544 218.718 259.997C219.476 259.57 220.509 258.733 221.235 258.186C215.118 258.651 206.038 258.712 199.835 258.795Z"/><path fill="#DFFC73" d="M152.21 387.098C152.091 386.409 152.193 386.743 151.592 386.128C152.428 384.155 160.715 376.943 162.738 375.414C164.063 374.413 165.969 373.18 166.772 371.767C167.217 370.982 166.959 371.081 167.725 370.482L168.098 370.552L168.114 370.919C167.499 371.786 167.391 371.872 167.111 372.869C168.598 371.422 177.674 362.758 179.011 362.298C176.032 365.621 172.81 368.157 169.584 371.169C163.884 376.491 158.018 381.889 152.21 387.098Z"/><path fill="#DFFC73" d="M229.392 190.376C237.632 183.272 245.971 176.889 253.227 168.632C254.166 167.563 260.239 163.635 261.838 162.36L286.457 142.333C291.575 138.161 296.616 133.4 301.637 129.086C304.069 126.996 306.923 125.032 309.44 122.945L335.123 101.539L350.299 88.7715C352.842 86.6027 358.442 81.1568 361.385 80.1672L361.752 80.5281C361.622 82.0686 356.413 86.5873 355.301 88.1435C350.266 95.1929 343.869 100.969 338.166 107.333L296.39 154.606L264.306 190.634C260.944 194.352 257.649 198.633 254.109 202.144L254.037 201.908C257.335 198.271 260.52 194.581 263.601 190.76C264.871 189.184 266.814 187.85 268.127 186.316C272.468 181.242 276.672 176.078 281.243 171.203C282.535 169.825 284.031 168.3 285.183 166.821L285.086 166.527L284.602 166.722L284.354 166.467L284.596 165.763C282.411 165.667 280.373 165.886 278.204 166.053C275.638 166.25 275.512 168.054 272.901 167.962L272.669 168.175C270.423 170.214 269.194 169.427 266.482 170.347C265.61 170.642 262.773 172.802 262.127 172.815C256.724 172.924 252.227 175.675 248.392 179.314C244.407 183.096 239.634 186.151 235.188 189.335C234.021 190.141 232.185 192.173 231.031 192.564C230.413 191.917 230.483 191.687 229.679 191.047L229.491 191.024C226.454 193.983 222.467 197.118 219.227 200.021L219.357 200.251C221.068 201.142 223.613 197.411 224.807 198.147C224.083 199.157 222.349 199.976 221.448 200.865C218.272 204 214.093 206.525 210.947 209.551L210.65 209.839L210.337 209.758C211.037 207.47 212.433 207.819 213.903 205.807C214.036 204.916 214.129 205.297 213.778 204.599C212.43 206.136 210.855 206.616 209.412 208.278L209.045 208.106C210.664 206.346 215.536 202.534 217.604 200.801C221.613 197.417 225.544 193.942 229.392 190.376Z"/><defs><linearGradient id="gradient_3" gradientUnits="userSpaceOnUse" x1="292.15012" y1="446.92691" x2="298.94254" y2="101.40653"><stop offset="0" stop-color="#064A63"/><stop offset="1" stop-color="#10AEBD"/></linearGradient></defs><path fill="url(#gradient_3)" d="M377.512 99.8538C378.299 100.6 382.936 104.922 383.278 105.537C388.877 110.348 392.933 114.973 397.809 120.334C411.446 135.327 421.715 152.248 429.988 170.697C432.554 176.418 435.118 182.338 437.06 188.36C442.207 204.767 445.399 221.724 446.57 238.879C447.384 249.462 447.068 256.365 446.179 266.751C442.78 307.418 426.658 345.981 400.101 376.966C356.527 427.531 293.297 452.924 226.855 445.396C204.979 442.918 182.345 435.802 162.666 426.092C160.4 424.974 150.223 419.662 148.961 418.378C146.909 417.707 137.463 411.51 135.08 410.021C135.819 408.784 139.371 406.217 140.598 404.969C145.812 399.661 152.027 395.114 157.436 390.154C159.839 389.222 159.325 390.858 161.291 388.667C162.574 388.446 164.005 388.233 165.265 387.963C165.365 389.385 165.488 390.713 165.446 392.142C165.932 392.933 166.264 393.618 165.728 394.523L165.434 394.643L165.169 395.185C165.726 395.885 166.003 396.009 166.737 396.489L166.483 397.103L166.707 397.229C167.119 396.887 167.388 396.511 167.831 396.537C169.209 396.62 171.665 398.265 172.929 399.013C173.982 399.394 174.741 399.692 175.755 400.162C176.841 400.937 180.408 402.459 181.773 403.066C190.471 407.018 199.494 410.211 208.742 412.608C247.124 422.447 287.761 418.23 323.305 400.719C327.717 398.569 332.474 395.935 336.729 393.474C339.09 392.108 341.339 390.382 343.674 389.017C345.823 387.138 348.785 385.612 350.999 383.749C359.802 376.341 369.221 369.759 376.15 360.407C378.149 357.708 380.733 354.926 383.003 352.439C386.229 347.764 390.685 342.698 393.546 337.769C404.287 319.264 412.442 298.975 415.641 277.741C415.909 275.967 416.847 272.672 416.362 271.206C416.175 274.354 412.816 292.566 411.483 295.031C411.208 294.266 412.068 290.789 412.441 290.173C414.013 287.573 416.347 266.449 416.501 266.217C416.914 264.345 416.886 258.393 416.895 256.233C416.904 253.029 416.566 249.36 416.704 246.266C417.188 235.391 415.999 226.228 413.738 215.621C409.537 195.082 401.502 175.519 390.053 157.958C385.752 151.459 381.798 146.688 376.774 140.859C372.131 135.473 369.924 132.061 364.231 127.279C363.661 126.22 360.126 123.497 358.904 122.446L358.951 122.056L359.484 121.677C360.908 122.202 360.671 123.385 361.983 123.972L362.046 123.43L361.557 122.897C361.15 121.614 361.483 120.495 361.839 119.233C361.987 118.706 363.769 118.14 364.373 117.791C364.461 117.521 366.113 112.834 365.883 113.122C368.191 110.238 370.58 106.658 373.23 104.175C374.915 102.597 376.86 102.415 377.512 99.8538Z"/><path fill="#013555" d="M343.674 389.017C345.823 387.138 348.785 385.612 350.999 383.749C359.802 376.341 369.221 369.759 376.15 360.407C378.149 357.708 380.733 354.926 383.003 352.439C382.84 353.838 379.822 356.204 378.964 357.43C371.651 367.873 361.98 375.301 352.229 383.287C351.144 384.176 349.546 384.954 348.98 386.216C348.571 387.113 345.453 388.295 344.083 389.084L344.561 389.422C344.236 390.66 337.032 395.499 335.697 396.088C330.755 398.266 325.728 402.164 320.989 404.358C314.148 407.527 308.079 411.111 301.373 414.418C295.575 416.582 289.402 417.867 283.381 419.193C268.348 422.506 252.468 424.277 237.075 423.036C231.387 422.577 225.308 421.959 219.536 421.696C217.727 421.614 212.917 419.586 210.949 419.298C205.108 417.441 199.009 415.372 192.999 414.237C191.348 413.926 185.564 410.147 184.29 408.868C183.362 407.74 182.171 406.139 181.406 404.986C181.469 404.448 181.508 403.965 181.468 403.425C179.068 401.97 175.512 400.757 172.916 399.236L172.929 399.013C173.982 399.394 174.741 399.692 175.755 400.162C176.841 400.937 180.408 402.459 181.773 403.066C190.471 407.018 199.494 410.211 208.742 412.608C247.124 422.447 287.761 418.23 323.305 400.719C327.717 398.569 332.474 395.935 336.729 393.474C339.09 392.108 341.339 390.382 343.674 389.017Z"/><defs><linearGradient id="gradient_4" gradientUnits="userSpaceOnUse" x1="149.01497" y1="397.28503" x2="154.23067" y2="403.99969"><stop offset="0" stop-color="#569945"/><stop offset="1" stop-color="#408255"/></linearGradient></defs><path fill="url(#gradient_4)" d="M161.291 388.667C162.574 388.446 164.005 388.233 165.265 387.963C165.365 389.385 165.488 390.713 165.446 392.142C165.932 392.933 166.264 393.618 165.728 394.523L165.434 394.643L165.169 395.185C164.523 394.201 164.511 394.126 163.477 393.659C160.662 393.869 162.64 398.637 156.871 398.432C157.195 398.847 156.992 398.652 157.513 398.983L157.511 399.196C157.135 399.106 156.948 399.061 156.557 399.063L156.688 399.947C155.674 400.456 152.917 400.947 152.678 401.366C152.451 401.766 151.112 404.994 150.315 405.177C149.271 405.416 148.388 404.711 147.401 405.419C146.434 409.062 147.606 409.596 143.954 410.84C143.729 410.916 142.799 413.061 142.46 413.58C143.054 415.167 148.54 416.886 148.961 418.378C146.909 417.707 137.463 411.51 135.08 410.021C135.819 408.784 139.371 406.217 140.598 404.969C145.812 399.661 152.027 395.114 157.436 390.154C159.839 389.222 159.325 390.858 161.291 388.667Z"/><path fill="#4D9C64" d="M165.434 394.643C164.521 393.472 164.138 392.733 163.541 391.365C163.593 391.483 162.029 390.727 161.801 390.591L161.964 390.234C162.813 389.743 163.838 389.847 164.847 389.826C165.006 390.825 165.015 391.247 165.446 392.142C165.932 392.933 166.264 393.618 165.728 394.523L165.434 394.643Z"/><path fill="#14AEAB" d="M377.512 99.8538C378.299 100.6 382.936 104.922 383.278 105.537C381.543 105.539 381.288 103.547 380.046 103.141C378.955 103.936 378.226 105.784 377.99 107.048L377.184 106.931C375.932 108.399 375.534 110.021 374.356 111.045L374.114 110.575C373.157 111.082 372.599 111.613 371.497 111.651L370.766 112.553L370.285 112.574L369.321 113.508L369.099 113.483L368.907 113.136C367.784 115.314 367.273 116.514 364.975 117.208C364.923 117.224 364.407 117.759 364.373 117.791C364.461 117.521 366.113 112.834 365.883 113.122C368.191 110.238 370.58 106.658 373.23 104.175C374.915 102.597 376.86 102.415 377.512 99.8538Z"/><path fill="#0A7DD7" d="M332.143 141.636C332.39 141.796 333.675 142.832 333.679 142.834L335.042 145.009C336.43 146.101 337.126 146.186 338.843 146.586C340.254 146.236 339.692 146.543 341.216 146.917C341.825 147.411 345.91 150.802 346.324 151.004C359.339 164.406 370.999 181.082 377.594 198.558C378.522 201.017 380.023 204.46 380.623 206.961C381.919 209.628 383.786 217.073 384.467 220.102C388.847 239.15 388.974 258.93 384.84 278.032C380.388 299.05 371.013 319.819 357.026 336.222C354.633 339.028 352.854 341.908 350.183 344.635C332.34 362.851 312.317 375.375 287.767 382.71C267.738 388.544 246.62 389.597 226.11 385.783C221.521 384.953 211.903 383.219 207.801 381.219C204.43 380.286 198.391 377.839 194.939 376.565C193.553 375.588 190.403 374.812 188.795 374.121C187.614 373.614 186.472 373.046 185.271 372.526C184.111 371.751 181.634 370.496 181.119 369.411L181.563 368.548C184.175 366.886 190.855 359.173 193.868 356.666C195.876 354.995 202.96 349.73 204.148 348.234C206.694 348.678 206.693 348.903 208.949 349.643C214.557 351.409 221.378 353.737 226.869 355.221C229.294 355.922 231.701 356.192 234.169 356.612C294.733 366.931 353.097 318.895 357.48 258.211C358.111 249.484 357.232 240.975 356.168 232.378C355.727 229.435 354.009 220.806 352.836 218.273C354.78 215.654 360.428 210.626 363.087 208.274C365.373 206.253 368.231 204.399 370.038 201.834C370.97 201.15 371.244 201.186 371.645 200.282C370.836 201.009 371.507 200.036 371.005 200.051C370.012 200.082 368.081 200.037 367.152 200.019C360.245 199.994 351.703 199.725 344.928 200.008C341.204 192.058 338.222 189.457 333.842 182.502C333.742 182.455 330.256 178.18 329.667 177.595C325.506 173.462 321.559 168.443 316.79 165.026C317.129 164.078 319.58 160.771 320.244 159.695C323.71 154.074 329.176 147.275 332.143 141.636Z"/><defs><linearGradient id="gradient_5" gradientUnits="userSpaceOnUse" x1="323.83163" y1="153.00214" x2="333.34711" y2="160.53522"><stop offset="0" stop-color="#59C588"/><stop offset="1" stop-color="#31B4BF"/></linearGradient></defs><path fill="url(#gradient_5)" d="M332.143 141.636C332.39 141.796 333.675 142.832 333.679 142.834L335.042 145.009C336.43 146.101 337.126 146.186 338.843 146.586C340.385 148.187 352.33 160.613 352.564 161.208C350.254 160.372 342.066 149.376 339.38 149.048C338.58 150.413 334.63 157.557 334.495 158.672C337.532 158.611 339.378 154.679 340.572 155.76C338.655 158.28 334.46 159.352 332.249 161.315C330.051 163.264 328.052 168.559 325.561 170.187C324.903 170.617 324.579 170.41 324.299 171.149C327.463 172.595 326.342 172.12 328.179 174.852C329.099 176.221 332.495 180.271 333.754 181.196C333.99 181.736 334.013 181.709 334.011 182.29L333.842 182.502C333.742 182.455 330.256 178.18 329.667 177.595C325.506 173.462 321.559 168.443 316.79 165.026C317.129 164.078 319.58 160.771 320.244 159.695C323.71 154.074 329.176 147.275 332.143 141.636Z"/><defs><linearGradient id="gradient_6" gradientUnits="userSpaceOnUse" x1="193.04774" y1="357.82571" x2="202.25871" y2="369.2377"><stop offset="0" stop-color="#56A079"/><stop offset="1" stop-color="#3D869D"/></linearGradient></defs><path fill="url(#gradient_6)" d="M181.563 368.548C184.175 366.886 190.855 359.173 193.868 356.666C195.876 354.995 202.96 349.73 204.148 348.234C206.694 348.678 206.693 348.903 208.949 349.643C207.679 350.486 206.897 351.127 207.775 352.748L208.657 353.286L208.815 353.857C206.62 357.707 202.77 355.602 199.392 361.556C193.68 363.27 186.017 370.143 194.879 374.569C194.866 375.205 194.939 375.385 194.69 375.934C196.646 376.668 207.175 380.334 207.801 381.219C204.43 380.286 198.391 377.839 194.939 376.565C193.553 375.588 190.403 374.812 188.795 374.121C187.614 373.614 186.472 373.046 185.271 372.526C184.111 371.751 181.634 370.496 181.119 369.411L181.563 368.548Z"/><defs><linearGradient id="gradient_7" gradientUnits="userSpaceOnUse" x1="197.89444" y1="361.74374" x2="204.79767" y2="370.24536"><stop offset="0" stop-color="#408E9A"/><stop offset="1" stop-color="#2778B4"/></linearGradient></defs><path fill="url(#gradient_7)" d="M208.657 353.286C210.565 353.886 212.527 354.102 214.487 354.505C216.581 354.935 218.497 355.527 220.533 356.144C219.761 356.234 219.553 356.244 218.791 356.468C216.906 355.86 212.082 354.098 210.342 354.276C208.198 355.863 208.988 358.424 207.107 359.754C207.032 359.44 206.966 359.175 206.879 358.862C205.489 360.298 204.351 360.349 202.949 361.439C201.473 362.587 200.529 364.046 198.846 365.117C199.381 365.594 199.391 365.526 200.124 365.598C199.085 368.08 199.518 369.91 199.281 372.325L199.291 372.958C200.358 373.771 199.948 373.702 201.089 373.729L201.322 373.398C201.193 372.852 200.572 370.902 200.313 370.449L200.04 370.573L200.024 370.959C200.007 371.296 199.978 371.653 199.955 371.989L199.68 372.061C199.152 371.116 199.589 370.002 200.42 369.426C201.52 370.252 201.282 372.084 202.17 372.698C203.567 371.566 203.158 370.409 204.614 369.507C206.13 370.166 205.555 371.395 206.522 371.124C207.166 369.726 205.891 369.72 206.893 368.377C208.517 366.201 210.99 364.495 213.466 363.423C214.85 362.846 213.897 361.861 214.827 362.166C214.77 363.954 211.836 364.289 210.653 365.458C209.782 366.319 207.451 367.62 207.117 368.93C206.881 369.853 207.377 370.43 206.761 371.378C205.516 371.813 205.292 370.834 203.989 371.172C203.373 371.767 203.318 372.425 203.099 373.276C202.282 374.234 201.391 373.866 200.812 374.856L200.902 375.394C201.916 376.103 206.894 378.093 207.563 378.647C205.978 379.346 204.644 377.67 203.058 377.31C201.572 376.973 200.735 375.062 198.912 376.775C198.689 376.115 198.745 376.303 198.7 375.591C197.056 375.355 196.652 375.339 195.13 374.682L194.879 374.569C186.017 370.143 193.68 363.27 199.392 361.556C202.77 355.602 206.62 357.707 208.815 353.857L208.657 353.286Z"/><path fill="#1874A7" d="M199.291 372.958C197.685 372.734 197.774 369.624 198.643 369.049C198.834 370.145 199.047 371.237 199.281 372.325L199.291 372.958Z"/><defs><linearGradient id="gradient_8" gradientUnits="userSpaceOnUse" x1="354.57626" y1="215.10913" x2="363.5192" y2="218.17357"><stop offset="0" stop-color="#42BFA7"/><stop offset="1" stop-color="#36B1BA"/></linearGradient></defs><path fill="url(#gradient_8)" d="M367.152 200.019C368.591 199.502 371.748 198.911 372.976 199.999C373.184 202.003 365.225 206.482 363.584 208.889C365.079 218.97 364.825 219.548 356.029 225.094C355.834 225.216 355.648 226.773 355.777 227.033C356.155 229.763 356.981 229.687 356.168 232.378C355.727 229.435 354.009 220.806 352.836 218.273C354.78 215.654 360.428 210.626 363.087 208.274C365.373 206.253 368.231 204.399 370.038 201.834C370.97 201.15 371.244 201.186 371.645 200.282C370.836 201.009 371.507 200.036 371.005 200.051C370.012 200.082 368.081 200.037 367.152 200.019Z"/><path fill="#35BDDA" d="M338.843 146.586C340.254 146.236 339.692 146.543 341.216 146.917C341.825 147.411 345.91 150.802 346.324 151.004C359.339 164.406 370.999 181.082 377.594 198.558C378.522 201.017 380.023 204.46 380.623 206.961L380.458 207.033C379.815 206.714 378.813 203.273 378.524 202.429C373.411 187.523 364.635 172.675 354.2 160.889L354.025 161.213C354.035 162.957 355.008 163.016 355.895 164.141C362.215 172.162 367.365 180.896 372.455 189.726C374.387 193.077 375.158 197.09 376.456 200.603C376.847 201.661 377.881 202.878 377.738 204.181C376.22 202.901 374.516 194.384 372.733 191.182C366.549 180.078 361.088 170.674 352.564 161.208C352.33 160.613 340.385 148.187 338.843 146.586Z"/><path fill="#14AEAB" d="M208.949 349.643C214.557 351.409 221.378 353.737 226.869 355.221C224.722 356.055 224.04 354.393 221.918 354.353C221.801 354.976 221.724 355.115 221.364 355.636C221.956 356.209 223.439 356.516 224.337 356.789C223.343 356.891 221.458 356.487 220.533 356.144C218.497 355.527 216.581 354.935 214.487 354.505C212.527 354.102 210.565 353.886 208.657 353.286L207.775 352.748C206.897 351.127 207.679 350.486 208.949 349.643Z"/><path fill="#14AEAB" d="M354.591 122.726L354.713 122.541C355.105 121.94 355.214 121.825 355.411 121.114L355.671 120.924C356.433 121.071 361.303 126.253 363.149 126.573C363.391 126.615 364.003 127.095 364.231 127.279C369.924 132.061 372.131 135.473 376.774 140.859C381.798 146.688 385.752 151.459 390.053 157.958C401.502 175.519 409.537 195.082 413.738 215.621C415.999 226.228 417.188 235.391 416.704 246.266C416.566 249.36 416.904 253.029 416.895 256.233C416.562 255.83 416.518 248.457 416.519 247.392C416.532 229.184 412.607 211.236 406.381 194.18C404.721 189.634 401.897 184.529 400.068 180.024C397.483 173.657 382.509 147.404 377.419 145.031C375.653 143.652 373.362 140.241 371.595 138.529C367.398 134.463 363.194 130.166 358.969 126.146C359.759 126.526 360.603 127.164 361.282 127.14C360.665 126.451 355.608 123.02 354.591 122.726Z"/><defs><linearGradient id="gradient_9" gradientUnits="userSpaceOnUse" x1="169.6768" y1="377.67599" x2="178.11665" y2="385.07742"><stop offset="0" stop-color="#61A333"/><stop offset="1" stop-color="#397B66"/></linearGradient></defs><path fill="url(#gradient_9)" d="M157.436 390.154C163.484 384.62 168.708 378.668 175.388 373.75C177.466 372.22 179.358 370.167 181.563 368.548L181.119 369.411C181.634 370.496 184.111 371.751 185.271 372.526C183.881 373.036 183.785 373.141 182.958 374.287C182.53 374.88 181.074 375.37 180.321 375.73L180.439 375.963C181.393 376.148 181.994 376.094 182.614 376.676C182.162 378.782 178.728 378.874 178.219 379.412L178.254 379.935C181.045 381.852 180.17 381.518 179.753 384.041L179.219 384.264C178.687 383.602 178.826 383.409 178.677 382.419C178.145 382.69 177.869 383.01 177.442 383.419C177.97 384.685 178.748 386.142 178.38 387.478C177.828 388.104 178.168 387.868 177.245 388.081L177.094 387.858C177.779 386.226 178.01 386.147 177.305 384.423C176.982 383.633 176.902 383.109 177.417 382.388C177.135 382.223 177.004 382.041 176.672 382.157C176.276 382.296 172.77 384.723 172.703 384.907C171.91 387.095 165.579 393.296 166.263 395.164C167.603 396.083 168.499 395.657 170.082 396.881L170.669 396.885C170.639 395.984 170.266 395.887 169.989 395.023C170.425 394.688 170.174 394.777 170.751 394.782C171.958 400.347 171.914 397.253 175.72 399.668C175.802 400.062 175.819 399.898 175.755 400.162C174.741 399.692 173.982 399.394 172.929 399.013C171.665 398.265 169.209 396.62 167.831 396.537C167.388 396.511 167.119 396.887 166.707 397.229L166.483 397.103L166.737 396.489C166.003 396.009 165.726 395.885 165.169 395.185L165.434 394.643L165.728 394.523C166.264 393.618 165.932 392.933 165.446 392.142C165.488 390.713 165.365 389.385 165.265 387.963C164.005 388.233 162.574 388.446 161.291 388.667C159.325 390.858 159.839 389.222 157.436 390.154Z"/><path fill="#3CB778" d="M336.345 143.014C335.411 142.417 335.77 142.811 335.3 141.728C335.885 139.585 337.488 140.895 338.923 140.514C340.675 138.992 340.37 136.367 341.348 134.341C342.214 132.546 344.299 133.906 345.047 132.234C344.52 131.559 344.075 131.817 343.057 131.174C343.572 129.711 346.265 130.339 347.45 129.279C350.541 126.516 347.925 124.806 347.752 123.445C348.371 121.841 350.081 120.951 351.531 119.957C352.328 120.795 353.613 122.201 354.591 122.726C355.608 123.02 360.665 126.451 361.282 127.14C360.603 127.164 359.759 126.526 358.969 126.146C357.973 125.801 356.823 125.113 355.877 124.61C355.329 124.958 354.962 125.075 354.674 125.585C355.47 126.645 356.068 125.929 356.251 126.725C355.496 127.016 354.956 127.285 354.147 127.338C353.668 126.81 353.82 126.869 353.834 125.877C353.419 126.582 352.402 133.252 352.543 134.443L353.408 134.521L353.269 134.804C348.338 136.377 349.213 135.643 346.395 140.137C345.526 141.523 341.313 143.641 340.684 145.598C341.758 147.291 346.456 150.063 346.324 151.004C345.91 150.802 341.825 147.411 341.216 146.917C339.692 146.543 340.254 146.236 338.843 146.586C337.126 146.186 336.43 146.101 335.042 145.009C335.648 144.848 335.431 145.024 335.726 144.523L335.438 143.82L336.345 143.014Z"/><path fill="#5BCA8B" d="M336.345 143.014C337.939 144.561 339.44 145.614 341.216 146.917C339.692 146.543 340.254 146.236 338.843 146.586C337.126 146.186 336.43 146.101 335.042 145.009C335.648 144.848 335.431 145.024 335.726 144.523L335.438 143.82L336.345 143.014Z"/><path fill="#4D9C64" d="M348.066 132.855C348.922 133.119 349.095 133.121 349.763 133.749C349.997 134.673 349.968 134.198 349.698 135.228C348.648 135.098 348.145 135.111 347.501 134.398C347.527 133.49 347.544 133.74 348.066 132.855Z"/><path fill="#3C7D55" d="M179.753 384.041C180.17 381.518 181.045 381.852 178.254 379.935L178.219 379.412C178.728 378.874 182.162 378.782 182.614 376.676C181.994 376.094 181.393 376.148 180.439 375.963L180.321 375.73C181.074 375.37 182.53 374.88 182.958 374.287C183.785 373.141 183.881 373.036 185.271 372.526C186.472 373.046 187.614 373.614 188.795 374.121C190.403 374.812 193.553 375.588 194.939 376.565C192.933 376.854 190.541 373.971 188.187 375.718C186.837 378.172 190.937 382.497 187.793 383.664C186.771 383.155 186.668 381.525 187.067 380.576C187.785 381.213 187.142 382.112 187.97 382.459C188.727 381.375 188.551 380.242 187.685 379.261C186.779 378.782 185.602 378.858 184.57 378.948C184.523 380.355 185.479 380.982 185.297 382.155C184.332 382.945 182.832 384.388 181.727 384.281C181.375 384.247 181.217 384.431 180.964 384.682C180.646 386.747 182.758 387.502 181.332 388.812C180.387 388.875 180.376 388.782 179.571 388.315L179.287 387.889L179.518 387.728L180.969 388.262L181.203 388.136C180.827 386.785 180.24 385.786 180.22 384.507L179.753 384.041Z"/><path fill="#338EA6" d="M377.419 145.031C382.509 147.404 397.483 173.657 400.068 180.024C401.897 184.529 404.721 189.634 406.381 194.18C412.607 211.236 416.532 229.184 416.519 247.392C416.518 248.457 416.562 255.83 416.895 256.233C416.886 258.393 416.914 264.345 416.501 266.217C416.499 265.506 416.627 265.165 416.314 264.657C415.754 265.874 415.741 271.266 414.679 274.397L414.433 274.335C414.397 273.843 414.346 273.92 414.496 273.51C415.101 271.842 415.079 269.772 415.276 268.001C415.879 262.576 416.468 257.33 415.936 251.869C415.859 251.287 416.122 250.554 416.073 249.998C415.693 245.67 416.11 241.427 415.663 237.088C413.997 220.911 410.298 204.989 404.214 189.887C402.104 184.651 399.18 179.79 396.952 174.613C396.376 173.395 395.938 171.965 395.256 170.811C391.479 164.424 387.345 158.316 383.264 152.135C382.277 150.64 377.79 146.193 377.419 145.031Z"/></svg>